HIERARCHY
ROOT pelvis
{
  OFFSET 0 100 0
  CHANNELS 6 Xposition Yposition Zposition Zrotation Xrotation Yrotation
  JOINT pelvis_right_femur
  {
    OFFSET -10.78128 -3.44521 -0.5502486
    CHANNELS 3 Zrotation Xrotation Yrotation
    JOINT right_femur_tibia
    {
      OFFSET -0.8047443 -44.0398 -0.1307829
      CHANNELS 3 Zrotation Xrotation Yrotation
      JOINT right_tibia_foot
      {
        OFFSET 3.006224 -47.83518 -5
        CHANNELS 3 Zrotation Xrotation Yrotation
        End Site
        {
          OFFSET 0 -5 15
        }
      }
    }
  }
  JOINT pelvis_left_femur
  {
    OFFSET 10.78128 -3.44521 -0.5502486
    CHANNELS 3 Zrotation Xrotation Yrotation
    JOINT left_femur_tibia
    {
      OFFSET 0.8047443 -44.0398 -0.1307829
      CHANNELS 3 Zrotation Xrotation Yrotation
      JOINT left_tibia_foot
      {
        OFFSET -4.370144 -48.10324 -4.275266
        CHANNELS 3 Zrotation Xrotation Yrotation
        End Site
        {
          OFFSET 0 -5 15
        }
      }
    }
  }
  JOINT pelvis_spine1
  {
    OFFSET 0 6.468898 -3.129235
    CHANNELS 3 Zrotation Xrotation Yrotation
    JOINT spine1
    {
      OFFSET 0 23.15396 4.99043
      CHANNELS 3 Zrotation Xrotation Yrotation
      JOINT spine2
      {
        OFFSET 0 20.79997 -5.064912
        CHANNELS 3 Zrotation Xrotation Yrotation
        JOINT neck
        {
          OFFSET 0 14.38658 9.616178
          CHANNELS 3 Zrotation Xrotation Yrotation
          End Site
          {
            OFFSET 0 20 0
          }
        }
      }
      JOINT right_manubrium
      {
        OFFSET -5.722621 16.35077 3.967754
        CHANNELS 3 Zrotation Xrotation Yrotation
        JOINT right_clavicle
        {
          OFFSET -13.16364 1.694482 -4.693211
          CHANNELS 3 Zrotation Xrotation Yrotation
          JOINT right_humerus
          {
            OFFSET -28.5034 -0.3100689 -2.792744
            CHANNELS 3 Zrotation Xrotation Yrotation
            JOINT right_radius
            {
              OFFSET -25.15693 0.02248979 -1.271978
              CHANNELS 3 Zrotation Xrotation Yrotation
              End Site
              {
                OFFSET -15 0 0
              }
            }
          }
        }
      }
      JOINT left_manubrium
      {
        OFFSET 5.722621 16.35077 3.967754
        CHANNELS 3 Zrotation Xrotation Yrotation
        JOINT left_clavicle
        {
          OFFSET 13.16364 1.694482 -4.693211
          CHANNELS 3 Zrotation Xrotation Yrotation
          JOINT left_humerus
          {
            OFFSET 29.39168 -1.063119 -2.237045
            CHANNELS 3 Zrotation Xrotation Yrotation
            JOINT left_radius
            {
              OFFSET 24.59957 -0.9528479 0.9047498
              CHANNELS 3 Zrotation Xrotation Yrotation
              End Site
              {
                OFFSET 15 -0 -0
              }
            }
          }
        }
      }
    }
  }
}
MOTION
Frames: 17
Frame Time: 0.0416666666667
0 103.5113 0 1.766794 -1.474046 -0.002716497 3.768537 -16.02043 11.51779 -0 40.78455 -0 -3.936118 -16.09558 -3.024352 -7.929052 9.375584 -21.60872 -0 4.869158 -0 19.76729 -8.001243 28.42221 -2.348309 -2.332747 4.704388 2.619178 9.935293 -7.114994 1.812319 21.34458 6.559803 2.967142 -25.08721 10.06416 5.429482 -18.65063 11.06556 86.47743 37.26673 -18.53208 -0 0 13.46461 -6.850793 8.698864 4.086582 6.48803 -20.148 -1.27031 -91.7528 21.41752 19.78437 0 0 -16.085 14.6291 13.74459 -3.083324
0.6086542 103.9111 1.779884 1.713159 -0.4782512 -0.04785146 4.286225 -18.6178 11.85825 -0 40.90338 -0 -3.690545 -15.80841 -2.617495 -8.223202 9.985626 -22.13344 -0 4.841674 -0 20.5657 -8.47276 28.97293 -2.372962 -2.261277 4.504153 2.890578 9.889163 -7.301061 1.787452 21.25601 6.628896 2.862473 -25.46704 10.21691 5.391228 -18.56623 11.16867 86.77889 37.54654 -18.91356 -0 0 12.93785 -6.343228 8.655286 4.123898 6.377962 -20.18789 -1.356045 -91.11426 21.38194 19.09897 0 0 -17.55066 14.98102 13.26485 -3.379488
0.9546971 103.1057 4.808931 0.8651225 -3.616481 -0.1493424 3.572402 -12.90188 4.087687 -0 20.48505 -0 -7.94554 -10.19657 -3.526923 -5.753256 5.993556 -15.3666 -0 8.052131 -0 10.26004 -14.06695 22.9581 -3.017989 -3.648458 6.25324 2.577418 8.824728 -6.634193 2.160518 21.96301 6.95115 2.679773 -26.78174 12.42127 4.811467 -20.74165 9.862691 86.6482 40.20194 -18.16125 -0 0 16.80907 -0.7075651 6.578267 -1.352186 7.877207 -20.3327 0.1908354 -96.81771 21.53033 25.59463 0 0 -13.49314 22.00248 17.70628 -10.12545
1.202814 102.2115 8.431313 0.8975123 -4.393845 -0.2640505 3.34316 -13.25008 2.635611 -0 16.30785 -0 -8.222006 -7.994601 -3.713436 -5.375657 6.07864 -13.40778 -0 9.597558 -0 8.672971 -14.79213 21.65114 -3.12682 -3.592743 6.980551 1.996998 8.80322 -6.214387 1.980631 22.08321 7.384073 3.076483 -26.33385 12.54483 4.250775 -21.53353 9.438442 87.05234 41.28247 -17.53326 -0 0 17.91918 -1.436351 6.246524 -2.307135 8.446589 -20.67647 0.2513251 -97.65389 19.61221 27.07336 0 0 -11.68131 23.83736 17.39276 -12.16387
1.427874 101.4926 11.99359 0.805103 -3.310495 -0.3409566 3.428759 -15.46527 3.091293 -0 16.87435 -0 -7.825499 -8.178229 -3.702722 -5.670638 7.147099 -14.08463 -0 9.017258 -0 8.439746 -15.83779 21.64602 -2.848269 -3.086194 8.650836 0.6368648 9.24323 -5.408816 1.089056 22.12366 8.24611 4.244152 -24.25086 11.28122 2.821181 -23.08382 8.909984 88.21014 41.33174 -16.78319 -0 0 19.95447 -5.300568 5.651843 -3.113602 8.919322 -21.96168 -0.8570483 -99.01796 14.81018 31.12484 0 0 -7.499484 23.9644 16.19965 -12.1918
1.626838 100.6832 15.65322 0.796124 -3.191676 -0.368596 3.374043 -16.25455 2.888273 -0 16.08038 -0 -7.721873 -7.67272 -3.764603 -5.670551 7.554646 -13.78869 -0 9.230708 -0 7.97064 -16.29674 21.2906 -2.489373 -2.098083 8.946184 -0.4198497 10.12879 -4.674062 0.3008623 22.00676 8.556364 5.461104 -21.66542 8.964776 2.147475 -23.60586 9.269923 87.72144 39.64961 -14.5394 -0 0 20.84672 -11.00579 5.928954 -0.6462296 8.309609 -22.56476 -2.755066 -97.9268 11.0078 31.76318 0 0 -4.367615 21.1878 13.85689 -10.13718
1.80795 99.91897 19.3483 0.7322841 -2.552754 -0.3524509 3.418968 -17.96311 2.989079 -0 15.87969 -0 -7.454689 -7.398895 -3.757413 -5.800656 8.33889 -13.94334 -0 9.082342 -0 7.57971 -17.08692 21.03578 -2.007894 -1.663854 8.804871 -0.9411155 10.76014 -4.130687 -0.1534224 22.05801 8.399641 5.800768 -19.94349 7.382128 1.827949 -23.8174 9.893715 86.95091 36.74838 -12.73628 -0 0 21.27813 -15.17749 6.783932 2.606284 7.234123 -22.49456 -4.130503 -97.45115 9.861853 32.88764 0 0 -2.222396 17.79334 13.28542 -6.594974
1.972507 99.09348 23.15019 0.7217482 -2.418677 -0.2958739 3.358479 -18.78477 2.814615 -0 15.17208 -0 -7.322271 -6.913193 -3.827776 -5.799671 8.772911 -13.66244 -0 9.260338 -0 7.093791 -17.53289 20.65419 -1.866253 -1.404117 8.149772 -1.29543 10.65932 -3.439698 -0.113775 22.46106 8.197822 5.599203 -19.30949 7.08369 1.897866 -23.44276 10.30157 85.50899 35.18221 -10.21013 -0 0 21.16323 -18.3024 7.77468 6.258589 6.469206 -21.25889 -4.257599 -97.0091 10.83878 32.50717 0 0 -0.5732146 15.39973 13.51405 -4.253132
2.122953 98.24511 27.08727 0.7066037 -2.172551 -0.1999423 3.304338 -19.98781 2.635147 -0 14.37257 -0 -7.115468 -6.318189 -3.877338 -5.827077 9.379191 -13.38819 -0 9.410499 -0 6.590308 -18.08713 20.21089 -1.905615 -1.317686 7.696324 -1.437726 10.14411 -2.957039 0.04338515 22.86342 8.036486 5.043689 -19.54716 7.464567 1.961647 -22.99487 10.44113 84.33902 34.90048 -8.331278 -0 0 20.83988 -19.91485 8.294829 8.986879 5.960077 -19.86206 -3.632037 -96.72609 12.77539 32.02195 0 0 -0.3670451 13.63819 13.91607 -2.186071
2.258405 97.32288 31.21617 0.7403242 -2.224432 -0.0658273 3.158499 -20.72298 2.292489 -0 13.27905 -0 -6.937968 -5.588439 -3.999565 -5.797834 9.875401 -12.85773 -0 9.760984 -0 6.009889 -18.45469 19.68349 -1.939843 -1.308246 7.53069 -1.421806 9.814927 -2.832248 0.1313703 23.01864 7.880075 4.608736 -19.92178 7.710054 1.99434 -22.71983 10.5065 83.73204 35.00214 -7.570044 -0 0 20.59892 -20.47962 8.478895 10.34543 5.676166 -19.13733 -3.135145 -96.40288 14.21012 31.56618 0 0 -1.18736 12.53504 13.98965 -0.7656244
2.376138 96.32679 35.59825 0.8114413 -2.421021 0.1067342 2.943559 -21.36408 1.848816 -0 11.9882 -0 -6.709144 -4.721996 -4.185295 -5.752691 10.45934 -12.17434 -0 10.26461 -0 5.307964 -18.7759 19.05989 -1.950678 -1.338599 7.466429 -1.31636 9.593252 -2.912238 0.1877523 23.05352 7.724981 4.244492 -20.38679 7.879095 2.071625 -22.44831 10.56194 83.40153 35.27901 -7.474231 -0 0 20.2792 -20.55794 8.584999 11.06271 5.513984 -18.77468 -2.702389 -96.0142 15.52548 30.98764 0 0 -2.600435 11.69825 13.92496 0.4036064
2.468629 95.24249 40.30093 0.9419743 -2.92069 0.3165226 2.639455 -21.57815 1.297409 -0 10.58956 -0 -6.439942 -3.7669 -4.491786 -5.662736 11.07932 -11.293 -0 11.07795 -0 4.419233 -18.92892 18.36007 -1.939991 -1.357884 7.429263 -1.197832 9.48139 -3.050376 0.2315712 23.0307 7.567283 3.981208 -20.74089 7.926954 2.180911 -22.20569 10.63467 83.15558 35.4608 -7.571654 -0 0 19.99956 -20.55577 8.687989 11.51491 5.40087 -18.6058 -2.405486 -95.61428 16.58905 30.35857 0 0 -3.982348 10.97896 13.77195 1.373798
2.522426 94.09359 45.39828 1.124409 -3.713952 0.5579879 2.288575 -21.41255 0.6992818 -0 9.253743 -0 -6.089232 -2.747812 -4.935975 -5.526877 11.82825 -10.26534 -0 12.36867 -0 3.269467 -18.89617 17.59677 -1.916273 -1.359692 7.398485 -1.06191 9.431935 -3.227909 0.2781065 22.96931 7.380768 3.752722 -21.03016 7.884555 2.333659 -21.95071 10.73706 82.88657 35.55608 -7.733915 -0 0 19.73182 -20.56516 8.816571 11.91224 5.287681 -18.51568 -2.168478 -95.14817 17.62222 29.60142 0 0 -5.458393 10.17942 13.51825 2.395867
2.515315 92.94536 50.95498 1.331764 -4.864067 0.8071653 1.996658 -20.63768 0.1665793 -0 8.288645 -0 -5.67839 -1.754479 -5.532016 -5.305746 12.6418 -9.133335 -0 14.56021 -0 1.820848 -18.49366 16.84756 -1.880453 -1.323813 7.383121 -0.9141593 9.439388 -3.422431 0.3292986 22.86797 7.135351 3.524924 -21.2226 7.719658 2.505911 -21.70424 10.88594 82.50565 35.50373 -7.8087 -0 0 19.53341 -20.71467 8.988445 12.41141 5.119025 -18.44235 -1.990495 -94.56161 18.66124 28.70996 0 0 -7.094635 9.145359 13.09749 3.650487
2.417266 91.95596 57.00001 1.463708 -6.286426 0.9932431 2.002688 -19.12302 -0.104375 -0 8.071135 -0 -5.307753 -0.8724765 -6.198292 -4.948137 13.30212 -7.984323 -0 18.39073 -0 0.1798697 -17.44215 16.24367 -1.822817 -1.23374 7.416583 -0.7249486 9.519267 -3.677369 0.387319 22.68975 6.792709 3.26453 -21.3278 7.386204 2.707299 -21.45766 11.10652 81.96696 35.29303 -7.836597 -0 0 19.40765 -21.03028 9.255083 13.04044 4.859985 -18.40342 -1.865552 -93.75212 19.824 27.58535 0 0 -9.23438 7.703052 12.38931 5.383345
2.202214 91.3932 63.46614 1.330559 -7.6967 0.9643257 2.652282 -16.76585 0.09777169 -0 8.804336 -0 -5.259808 -0.1550824 -6.696634 -4.400876 13.17876 -6.90209 -0 24.91496 -0 -1.211968 -15.34504 15.97321 -1.735649 -1.058791 7.557576 -0.4878945 9.690517 -4.003313 0.454478 22.40117 6.355822 2.980774 -21.29614 6.85835 2.920138 -21.24865 11.40616 81.24855 34.91884 -7.822 -0 0 19.41691 -21.57933 9.718283 13.74166 4.493126 -18.42538 -1.827314 -92.70027 21.06359 26.27204 0 0 -12.02055 5.799614 11.30526 7.712396
1.8741 91.5263 70.13561 0.8041567 -8.69333 0.5410265 4.047967 -13.68693 0.7094932 -0 10.022 -0 -5.909592 0.4028408 -6.718392 -3.702125 11.42658 -5.957711 -0 34.45497 -0 -1.663312 -12.14211 16.10909 -1.642744 -0.7844606 7.834008 -0.2578864 9.91493 -4.307522 0.5528602 22.04101 5.93489 2.746535 -21.0472 6.269857 3.115176 -21.12171 11.73006 80.37548 34.44392 -7.664835 -0 0 19.62935 -22.44313 10.50753 14.36483 4.070054 -18.4518 -1.894251 -91.6336 22.13707 25.0634 0 0 -14.91963 3.693923 10.0036 10.35431
